<svg xmlns="http://www.w3.org/2000/svg" xmlns:xlink="http://www.w3.org/1999/xlink" width="100" height="100" viewBox="0 0 100 100"><g><g transform="translate(50 50) scale(0.69 0.69) rotate(0) translate(-50 -50)" style="fill:#fb8c00"><svg fill="#fb8c00" xmlns="http://www.w3.org/2000/svg" xmlns:xlink="http://www.w3.org/1999/xlink" version="1.1" x="0px" y="0px" viewBox="0 0 100 100" enable-background="new 0 0 100 100" xml:space="preserve"><g><path d="M50,23.95605c3.58398,0,6.5-2.91602,6.5-6.5s-2.91602-6.5-6.5-6.5s-6.5,2.91602-6.5,6.5S46.41602,23.95605,50,23.95605z    M50,13.95605c1.92969,0,3.5,1.57031,3.5,3.5s-1.57031,3.5-3.5,3.5s-3.5-1.57031-3.5-3.5S48.07031,13.95605,50,13.95605z"></path><path d="M62.29883,34.28809c0-4.27295-3.47656-7.74951-7.75-7.74951h-9.09766c-4.27344,0-7.75,3.47656-7.75,7.74951v6.18799   h24.59766V34.28809z M59.29883,37.47607H40.70117v-3.18799c0-2.61865,2.13086-4.74951,4.75-4.74951h9.09766   c2.61914,0,4.75,2.13086,4.75,4.74951V37.47607z"></path><path d="M79.21582,74.53857h-9.09863c-4.27246,0-7.74902,3.47656-7.74902,7.74951v6.18799h24.59766v-6.18799   C86.96582,78.01514,83.48926,74.53857,79.21582,74.53857z"></path><path d="M68.16699,64.45605c0,3.58398,2.91602,6.5,6.5,6.5s6.5-2.91602,6.5-6.5s-2.91602-6.5-6.5-6.5   S68.16699,60.87207,68.16699,64.45605z"></path><rect x="44.5" y="66.1665" width="11" height="3"></rect><rect x="44.5" y="72.8335" width="11" height="3"></rect><rect x="32.47623" y="43.14296" transform="matrix(0.70711 0.70711 -0.70711 0.70711 44.3472 -9.77749)" width="2.99968" height="11.00021"></rect><rect x="37.1901" y="47.85683" transform="matrix(-0.70711 -0.70711 0.70711 -0.70711 28.31881 118.4439)" width="2.99968" height="11.00021"></rect><rect x="64.52409" y="43.14296" transform="matrix(-0.70711 0.70711 -0.70711 -0.70711 147.10573 36.35294)" width="2.99968" height="11.00021"></rect><rect x="55.80996" y="51.85709" transform="matrix(0.70711 0.70711 -0.70711 0.70711 55.68635 -27.72487)" width="11.00021" height="2.99968"></rect><path d="M25.625,70.95605c3.58398,0,6.5-2.91602,6.5-6.5s-2.91602-6.5-6.5-6.5s-6.5,2.91602-6.5,6.5   S22.04102,70.95605,25.625,70.95605z M25.625,67.95605c-0.40082,0-0.77991-0.08179-1.13885-0.20642l4.43237-4.43268   c0.12469,0.35901,0.20648,0.73816,0.20648,1.1391C29.125,66.38574,27.55469,67.95605,25.625,67.95605z M25.625,60.95605   c0.41956,0,0.81671,0.08624,1.18988,0.22229l-4.46753,4.46783c-0.13611-0.37323-0.22235-0.77045-0.22235-1.19012   C22.125,62.52637,23.69531,60.95605,25.625,60.95605z"></path><path d="M30.17383,74.53857h-9.09766c-4.27344,0-7.75,3.47656-7.75,7.74951v6.18799h24.59766v-6.18799   C37.92383,78.01514,34.44727,74.53857,30.17383,74.53857z M32.19958,78.00946l-7.46619,7.46661h-4.94824l7.9375-7.9375h2.45117   C30.90106,77.53857,31.58276,77.71606,32.19958,78.00946z M21.07617,77.53857h2.4043l-7.1543,7.1543v-2.40479   C16.32617,79.66943,18.45703,77.53857,21.07617,77.53857z M34.92383,85.47607h-5.94836l5.3844-5.38464   c0.34814,0.6601,0.56396,1.40002,0.56396,2.19666V85.47607z"></path></g></svg></g></g></svg>
