<?xml version="1.0" encoding="utf-8"?>
<svg viewBox="0 0 90 154" xmlns="http://www.w3.org/2000/svg">
    <g id="SvgjsG1055" featurekey="symbol1" fill="#ffffff" transform="matrix(1.3581430572103612,0,0,1.3581430572103612,-23.114194760862027,8.943361629213907)"><path d="M74.361,63.66c-4.164,13.363-18.406,15.662-22.897,16.101v18.185c0,0.766-0.546,1.312-1.312,1.312  c-0.765,0-1.312-0.546-1.312-1.312V79.761c-4.49-0.325-18.732-2.737-22.896-16.101c-5.153-16.655,2.407-36.813,23.221-61.678  l0.987-1.204l0.987,1.204C71.953,26.853,79.514,47.005,74.361,63.66z M53.523,43.311c0.11,0.109,0.288,0.109,0.397,0l4.431-4.431  c0.054-0.053,0.083-0.125,0.083-0.199v-11.75l0.843-0.842c0.575,0.383,1.347,0.349,1.853-0.159c0.579-0.578,0.579-1.515,0-2.092  c-0.576-0.578-1.514-0.578-2.093,0c-0.507,0.507-0.541,1.279-0.158,1.854l-0.925,0.924c-0.052,0.053-0.081,0.125-0.081,0.199v11.75  l-4.35,4.349C53.414,43.023,53.414,43.201,53.523,43.311z M67.712,50.684H53.723c-0.156,0-0.282,0.124-0.282,0.281  c0,0.155,0.126,0.281,0.282,0.281h13.989c0.131,0.683,0.73,1.198,1.451,1.198c0.817,0,1.479-0.662,1.479-1.479  s-0.662-1.48-1.479-1.48C68.441,49.484,67.843,50.001,67.712,50.684z M62.446,43.919c-0.074,0-0.146,0.03-0.199,0.083l-4.157,4.157  h-4.367c-0.156,0-0.282,0.127-0.282,0.281c0,0.155,0.126,0.281,0.282,0.281h4.484c0.073,0,0.145-0.029,0.198-0.083l4.157-4.157  h4.372c0.132,0.682,0.731,1.199,1.451,1.199c0.817,0,1.48-0.663,1.48-1.479c0-0.817-0.663-1.48-1.48-1.48  c-0.719,0-1.319,0.516-1.451,1.198H62.446z M46.781,55.636c-0.11-0.109-0.288-0.109-0.398,0l-6.638,6.64h-4.318  c-0.131-0.683-0.729-1.2-1.451-1.2c-0.817,0-1.48,0.664-1.48,1.479c0,0.818,0.663,1.48,1.48,1.48c0.72,0,1.319-0.516,1.451-1.198  h4.435c0.073,0,0.146-0.031,0.198-0.083l6.721-6.72C46.891,55.923,46.891,55.746,46.781,55.636z M31.151,52.443  c0.721,0,1.319-0.516,1.451-1.198h13.98c0.155,0,0.281-0.126,0.281-0.281c0-0.157-0.126-0.281-0.281-0.281h-13.98  c-0.131-0.683-0.73-1.199-1.451-1.199c-0.818,0-1.48,0.663-1.48,1.48S30.333,52.443,31.151,52.443z M46.582,47.906h-4.166  l-6.746-6.746c-0.053-0.052-0.125-0.082-0.198-0.082h-1.38c-0.131-0.682-0.73-1.199-1.451-1.199c-0.817,0-1.479,0.663-1.479,1.479  c0,0.817,0.662,1.479,1.479,1.479c0.721,0,1.319-0.516,1.451-1.198h1.263l6.746,6.746c0.053,0.052,0.125,0.083,0.199,0.083h4.282  c0.155,0,0.281-0.127,0.281-0.281C46.863,48.032,46.737,47.906,46.582,47.906z M39.78,28.01l1.736,1.736v8.581  c0,0.074,0.029,0.146,0.083,0.198l4.785,4.786c0.11,0.109,0.288,0.109,0.398,0c0.11-0.11,0.11-0.288,0-0.397l-4.703-4.703v-8.581  c0-0.074-0.03-0.146-0.083-0.199l-1.818-1.818c0.383-0.575,0.349-1.347-0.159-1.854c-0.577-0.578-1.515-0.578-2.092,0  c-0.578,0.577-0.578,1.515,0,2.092C38.433,28.359,39.205,28.394,39.78,28.01z M45.403,32.988c1.287,0,2.335-1.047,2.335-2.335  c0-1.143-0.828-2.092-1.914-2.292V17.084l3.907-3.906v5.924v15.105c-1.086,0.2-1.914,1.149-1.914,2.292  c0,1.287,1.048,2.335,2.335,2.335s2.335-1.048,2.335-2.335c0-1.144-0.827-2.093-1.913-2.292V20.121l3.832,3.832v6.379  c-1.086,0.2-1.913,1.149-1.913,2.292c0,1.288,1.048,2.335,2.336,2.335c1.287,0,2.334-1.047,2.334-2.335  c0-1.143-0.827-2.092-1.913-2.292v-6.553c0-0.111-0.045-0.22-0.124-0.298l-4.552-4.553V4.943V3.754c0-0.233-0.189-0.422-0.422-0.422  c-0.233,0-0.421,0.189-0.421,0.422v1.189v7.042l-4.626,4.626c-0.078,0.078-0.123,0.187-0.123,0.298v11.452  c-1.086,0.2-1.914,1.149-1.914,2.292C43.068,31.941,44.116,32.988,45.403,32.988z M57.274,41.27c-0.91,0.91-0.91,2.392,0,3.302  c0.91,0.911,2.392,0.911,3.303,0c0.808-0.808,0.895-2.064,0.268-2.974l2.465-2.465c0.078-0.079,0.124-0.187,0.124-0.298v-9.54  l2.191-2.192c0.165-0.165,0.165-0.432,0-0.596c-0.164-0.165-0.432-0.165-0.597,0l-2.315,2.316c-0.078,0.078-0.124,0.187-0.124,0.298  v9.54l-2.341,2.341C59.339,40.375,58.082,40.462,57.274,41.27z M31.053,35.224h2.624l5.812,5.811  c-0.627,0.91-0.541,2.166,0.268,2.974c0.91,0.911,2.391,0.911,3.302,0c0.91-0.91,0.911-2.391,0.001-3.301  c0.227,0.228,0.454,0.454-0.001-0.001c-0.114-0.114-0.185-0.185-0.224-0.224c0.048,0.048,0.135,0.135,0.223,0.223  c-0.809-0.807-2.064-0.894-2.973-0.267l-5.935-5.936c-0.079-0.079-0.188-0.124-0.298-0.124h-2.799c-0.232,0-0.422,0.189-0.422,0.422  S30.82,35.224,31.053,35.224z M39.378,58.42l0.707-0.706c0.909,0.625,2.165,0.539,2.974-0.268c0.911-0.911,0.911-2.394,0-3.304  s-2.392-0.91-3.302,0c-0.809,0.808-0.896,2.065-0.268,2.975L38.906,57.7h-7.754c-0.112,0-0.22,0.046-0.298,0.124l-3.334,3.334  c-0.166,0.165-0.166,0.433,0,0.597c0.164,0.164,0.431,0.164,0.595,0l3.212-3.211h7.753C39.19,58.544,39.299,58.498,39.378,58.42z   M39.757,54.143C40.667,53.232,38.846,55.053,39.757,54.143L39.757,54.143z M72.752,59.235h-4.404l-5.04-5.038  c-0.079-0.08-0.187-0.123-0.299-0.123l-1.478-0.001c-0.199-1.086-1.149-1.914-2.293-1.914c-1.288,0-2.335,1.048-2.335,2.335  c0,1.288,1.047,2.337,2.335,2.337c1.144,0,2.094-0.828,2.293-1.915h1.304l5.039,5.04c0.079,0.077,0.188,0.123,0.299,0.123h4.579  c0.233,0,0.422-0.189,0.422-0.422S72.985,59.235,72.752,59.235z M65.026,61.029l-1.823-1.823h-5.712l-3.57-3.57  c-0.109-0.109-0.287-0.109-0.397,0c-0.109,0.11-0.109,0.287,0,0.398l3.735,3.734h5.712l1.657,1.658  c-0.383,0.575-0.349,1.347,0.159,1.854c0.578,0.578,1.515,0.578,2.093,0c0.577-0.577,0.577-1.515,0-2.093  C66.372,60.681,65.602,60.646,65.026,61.029z M59.107,67.085c-1.143,0-2.092,0.826-2.291,1.913H54.31  c-0.111,0-0.219,0.044-0.298,0.124l-3.438,3.438v-6.116c1.185-0.202,2.093-1.229,2.093-2.473c0-1.385-1.129-2.514-2.515-2.514  c-1.387,0-2.515,1.129-2.515,2.514c0,1.243,0.908,2.271,2.093,2.473v7.135v0.578l-3.907-4.885v-3.204  c0-0.026-0.01-0.051-0.015-0.076c0.747-0.984,0.682-2.393-0.216-3.29c-0.98-0.98-2.575-0.98-3.556,0c-0.98,0.979-0.98,2.575,0,3.555  c0.797,0.797,1.996,0.935,2.944,0.436v2.729c0,0.095,0.032,0.188,0.092,0.262l4.658,5.823v1.677v0.886  c0,0.232,0.188,0.421,0.421,0.421c0.232,0,0.422-0.188,0.422-0.421v-0.886v-3.432l3.91-3.911h2.331  c0.199,1.087,1.148,1.916,2.292,1.916c1.288,0,2.335-1.049,2.335-2.335C61.442,68.132,60.396,67.085,59.107,67.085z M45.593,62.701  C46.573,63.681,44.612,61.721,45.593,62.701L45.593,62.701z"></path></g>
</svg>
