<svg xmlns="http://www.w3.org/2000/svg" xmlns:xlink="http://www.w3.org/1999/xlink" width="100" height="100" viewBox="0 0 100 100"><g><g transform="translate(50 50) scale(0.69 0.69) rotate(0) translate(-50 -50)" style="fill:#fb8c00"><svg fill="#fb8c00" xmlns="http://www.w3.org/2000/svg" xmlns:xlink="http://www.w3.org/1999/xlink" version="1.1" x="0px" y="0px" viewBox="0 0 64 64" style="enable-background:new 0 0 64 64;" xml:space="preserve"><g><path d="M59,37c-2.206,0-4,1.794-4,4c0,1.109,0.455,2.113,1.186,2.838l-3.108,5.328C52.733,49.069,52.376,49,52,49   c-1.265,0-2.382,0.602-3.115,1.521l-3.948-1.755C44.345,42.505,39.293,37.533,33,37.051V34c0-2.757,2.243-5,5-5   c0.553,0,1-0.447,1-1c0-3.859,3.141-7,7-7h6.929c-0.486,3.388-3.408,6-6.929,6h-4c-0.553,0-1,0.447-1,1s0.447,1,1,1h4   c4.963,0,9-4.037,9-9c0-0.553-0.447-1-1-1h-8c-4.646,0-8.482,3.54-8.952,8.064c-1.578,0.216-2.986,0.963-4.048,2.05V11h5   c4.963,0,9-4.037,9-9c0-0.553-0.447-1-1-1h-6c-3.484,0-6.505,1.993-8,4.895C30.505,2.993,27.484,1,24,1h-6c-0.553,0-1,0.447-1,1   c0,4.963,4.037,9,9,9h5v18.115c-1.062-1.087-2.47-1.835-4.048-2.05C26.482,22.54,22.646,19,18,19h-8c-0.553,0-1,0.447-1,1   c0,4.963,4.037,9,9,9h4c0.553,0,1-0.447,1-1s-0.447-1-1-1h-4c-3.521,0-6.442-2.612-6.929-6H18c3.859,0,7,3.141,7,7   c0,0.553,0.447,1,1,1c2.757,0,5,2.243,5,5v3.051c-2.514,0.193-4.824,1.103-6.737,2.527l-4.329-1.924C19.969,37.44,20,37.224,20,37   c0-2.206-1.794-4-4-4s-4,1.794-4,4c0,0.91,0.317,1.741,0.831,2.414l-6.228,7.927C6.112,47.124,5.571,47,5,47c-2.206,0-4,1.794-4,4   s1.794,4,4,4s4-1.794,4-4c0-0.911-0.318-1.741-0.832-2.414l6.228-7.927C14.888,40.876,15.429,41,16,41   c1.265,0,2.381-0.602,3.115-1.521l3.496,1.554C20.38,43.368,19,46.523,19,50c0,7.168,5.832,13,13,13   c2.707,0,5.31-0.834,7.525-2.412c0.45-0.32,0.555-0.944,0.234-1.395s-0.944-0.554-1.395-0.234C36.49,60.294,34.289,61,32,61   c-6.065,0-11-4.935-11-11s4.935-11,11-11s11,4.935,11,11c0,2.289-0.706,4.49-2.041,6.365c-0.32,0.45-0.216,1.074,0.234,1.395   c0.449,0.319,1.073,0.215,1.395-0.234c1.389-1.951,2.2-4.201,2.375-6.559l3.103,1.38C48.031,52.56,48,52.776,48,53   c0,2.206,1.794,4,4,4s4-1.794,4-4c0-1.109-0.455-2.113-1.186-2.838l3.108-5.328C58.267,44.931,58.624,45,59,45c2.206,0,4-1.794,4-4   S61.206,37,59,37z M5,53c-1.103,0-2-0.897-2-2s0.897-2,2-2s2,0.897,2,2S6.103,53,5,53z M16,39c-1.103,0-2-0.897-2-2s0.897-2,2-2   s2,0.897,2,2S17.103,39,16,39z M40,3h4.929C44.442,6.388,41.521,9,38,9h-4.929C33.558,5.612,36.479,3,40,3z M26,9   c-3.521,0-6.442-2.612-6.929-6H24c3.521,0,6.442,2.612,6.929,6H26z M52,55c-1.103,0-2-0.897-2-2s0.897-2,2-2s2,0.897,2,2   S53.103,55,52,55z M59,43c-1.103,0-2-0.897-2-2s0.897-2,2-2s2,0.897,2,2S60.103,43,59,43z"></path><circle cx="40" cy="50" r="1"></circle><circle cx="24" cy="50" r="1"></circle><path d="M32,45c1.103,0,2,0.897,2,2c0,0.553,0.447,1,1,1s1-0.447,1-1c0-1.859-1.279-3.411-3-3.858V42c0-0.553-0.447-1-1-1   s-1,0.447-1,1v1.142c-1.721,0.447-3,1.999-3,3.858c0,2.206,1.794,4,4,4c1.103,0,2,0.897,2,2s-0.897,2-2,2s-2-0.897-2-2   c0-0.553-0.447-1-1-1s-1,0.447-1,1c0,1.859,1.279,3.411,3,3.858V58c0,0.553,0.447,1,1,1s1-0.447,1-1v-1.142   c1.721-0.447,3-1.999,3-3.858c0-2.206-1.794-4-4-4c-1.103,0-2-0.897-2-2S30.897,45,32,45z"></path></g></svg></g></g></svg>
